<svg xmlns="http://www.w3.org/2000/svg" viewBox="0 0 512 512" width="512" height="512">
  <defs>
    <linearGradient id="sc-grad" x1="0%" y1="0%" x2="100%" y2="100%">
      <stop offset="0%" stop-color="#1E3A8A" />
      <stop offset="50%" stop-color="#2563EB" />
      <stop offset="100%" stop-color="#60A5FA" />
    </linearGradient>
    <filter id="glow" x="-20%" y="-20%" width="140%" height="140%">
      <feDropShadow dx="0" dy="8" stdDeviation="12" flood-color="#000" flood-opacity="0.3" />
    </filter>
  </defs>
  <!-- Background with rounded corners -->
  <rect width="512" height="512" rx="112" fill="url(#sc-grad)" />
  <!-- Accent Inner Border -->
  <rect x="16" y="16" width="480" height="480" rx="96" fill="none" stroke="#FFFFFF" stroke-opacity="0.2" stroke-width="4" />
  
  <!-- Icon Group -->
  <g filter="url(#glow)" transform="translate(136, 120)">
    <!-- Phone Handset -->
    <path d="M220 169.2v30a20 20 0 0 1-21.8 20 197.9 197.9 0 0 1-86.3-30.7 195 195 0 0 1-60-60A197.9 197.9 0 0 1 21.2 42.2 20 20 0 0 1 41.1 20h30a20 20 0 0 1 20 17.2 128.4 128.4 0 0 0 7 28.1 20 20 0 0 1-4.5 21.1L73.9 106.1a160 160 0 0 0 60 60l19.7-19.7a20 20 0 0 1 21.1-4.5 128.4 128.4 0 0 0 28.1 7A20 20 0 0 1 220 169.2z" fill="#FFFFFF" />
    <!-- AI Sound Wave Lines -->
    <circle cx="210" cy="50" r="14" fill="#38BDF8" />
    <path d="M190 20 A 40 40 0 0 1 240 70" fill="none" stroke="#38BDF8" stroke-width="8" stroke-linecap="round" />
    <path d="M175 0 A 70 70 0 0 1 265 90" fill="none" stroke="#60A5FA" stroke-width="8" stroke-linecap="round" />
  </g>
  
  <!-- Label SC -->
  <text x="256" y="440" font-family="-apple-system, BlinkMacSystemFont, 'Segoe UI', Roboto, sans-serif" font-size="44" font-weight="900" fill="#FFFFFF" text-anchor="middle" letter-spacing="4">SMARTCALL AI</text>
</svg>
